<svg width="229" height="200" viewBox="0 0 229 200" fill="none" xmlns="http://www.w3.org/2000/svg">
<path d="M228.052 99.3813C227.786 80.2072 221.314 61.4995 209.401 45.4617C197.488 29.4238 180.63 16.7236 160.811 8.85686C140.991 0.990116 119.038 -1.71552 97.5344 1.05841C76.0315 3.83247 55.8744 11.9705 39.4373 24.5145C23.0001 37.0584 10.9675 53.4856 4.75638 71.8615C-1.45457 90.2376 -1.58543 109.797 4.37951 128.236C10.3444 146.676 22.1566 163.226 38.4249 175.941C54.693 188.655 74.74 197.003 96.2045 200V128.687H67.6971V99.3813H96.2045V77.1195C95.5446 71.9434 96.1803 66.7023 98.0675 61.7664C99.9547 56.8306 103.046 52.3203 107.124 48.5541C111.202 44.7877 116.167 41.857 121.669 39.969C127.171 38.0809 133.076 37.2814 138.966 37.627C147.515 37.7303 156.045 38.403 164.48 39.6394V64.794H150.226C147.769 64.5205 145.272 64.7378 142.923 65.43C140.572 66.1221 138.429 67.2713 136.65 68.7926C134.871 70.314 133.502 72.1686 132.646 74.2191C131.788 76.2705 131.464 78.4652 131.697 80.6411V99.6329H163.34L158.209 128.938H131.839V199.371C158.777 195.612 183.297 183.457 200.949 165.112C218.601 146.766 228.216 123.447 228.052 99.3813Z" fill="#C60000"/>
</svg>
