<svg width="226" height="197" viewBox="0 0 226 197" fill="none" xmlns="http://www.w3.org/2000/svg">
<path d="M112.947 115.568C123.804 115.568 132.692 107.813 132.692 98.2524C132.692 94.4898 131.291 90.9959 128.97 88.1547C125.38 83.8161 119.558 80.9365 112.991 80.9365C106.424 80.9365 100.601 83.7777 97.0109 88.1547C94.6906 90.9959 93.2896 94.4898 93.2896 98.2524C93.2458 107.813 102.089 115.568 112.947 115.568Z" fill="#C60000"/>
<path d="M156.027 77.1329V62.6198V60.4697H153.575L137.026 60.5081L137.114 77.1713L156.027 77.1329Z" fill="#C60000"/>
<path d="M143.594 98.2891C143.594 113.109 129.847 125.165 112.948 125.165C96.0485 125.165 82.3016 113.109 82.3016 98.2891C82.3016 94.7185 83.1334 91.3014 84.5781 88.1914H67.8541V128.429C67.8541 133.612 72.6699 137.835 78.5802 137.835H147.315C153.225 137.835 158.041 133.612 158.041 128.429V88.1914H141.317C142.806 91.3014 143.594 94.7185 143.594 98.2891Z" fill="#C60000"/>
<path d="M112.947 0C51.0419 0 0.869934 44 0.869934 98.2898C0.869934 152.579 51.0419 196.58 112.947 196.58C174.852 196.58 225.024 152.579 225.024 98.2898C225.024 44 174.852 0 112.947 0ZM168.985 88.192V128.429C168.985 138.911 159.266 147.435 147.314 147.435H78.5796C66.6276 147.435 56.9084 138.911 56.9084 128.429V88.192V68.1117C56.9084 57.63 66.6276 49.1065 78.5796 49.1065H147.314C159.266 49.1065 168.985 57.63 168.985 68.1117V88.192Z" fill="#C60000"/>
</svg>
