<svg width="225" height="197" viewBox="0 0 225 197" fill="none" xmlns="http://www.w3.org/2000/svg">
<ellipse cx="112.973" cy="98.2456" rx="112.027" ry="98.2456" fill="#C60000"/>
<path d="M115.596 49.2059C122.131 49.1211 128.618 49.1652 135.101 49.1211C135.317 56.0131 138.606 62.2162 143.84 66.8109L143.832 66.8041C149.465 71.1171 156.794 73.9132 164.874 74.3883L164.986 74.3951V91.4843C157.353 91.3214 150.175 89.8249 143.704 87.2527L144.032 87.3681C140.902 86.0888 138.255 84.7755 135.74 83.3096L135.948 83.4249C135.9 95.8074 135.995 108.19 135.848 120.528C135.437 126.816 132.977 132.551 129.033 137.339L129.113 137.234C122.518 145.263 111.835 150.533 99.6875 150.845H99.6316C99.1406 150.865 98.5618 150.875 97.9789 150.875C91.0726 150.875 84.6174 149.24 79.1163 146.4L79.276 146.478C69.2639 141.357 62.3576 132.595 61.0801 122.405L61.0642 122.266C60.9644 120.145 60.9165 118.024 61.0163 115.947C62.9724 99.7302 78.9567 87.1848 98.3861 87.1848C100.57 87.1848 102.71 87.3443 104.789 87.6463L104.566 87.6192C104.666 93.8936 104.366 100.171 104.366 106.446C102.678 105.927 100.729 105.625 98.6975 105.625C91.2403 105.625 84.8969 109.676 82.5495 115.333L82.5136 115.435C81.9827 116.884 81.6753 118.55 81.6753 120.274C81.6753 120.973 81.7272 121.665 81.823 122.344L81.815 122.262C83.1404 129.205 90.1425 134.445 98.5857 134.445C98.8292 134.445 99.0688 134.441 99.3083 134.431H99.2724C105.113 134.282 110.183 131.611 113.049 127.665L113.089 127.604C114.155 126.341 114.885 124.814 115.129 123.155L115.133 123.107C115.632 115.516 115.432 107.969 115.48 100.378C115.528 83.2892 115.432 66.2408 115.58 49.1957L115.596 49.2059Z" fill="#050704"/>
</svg>
