<svg width="225" height="197" viewBox="0 0 225 197" fill="none" xmlns="http://www.w3.org/2000/svg">
<path d="M97.9402 117.217L134.628 98.3266L97.9402 79.4365V117.217Z" fill="#C60000"/>
<path d="M112.87 0C50.9646 0 0.792603 44 0.792603 98.2898C0.792603 152.579 50.9646 196.58 112.87 196.58C174.775 196.58 224.947 152.579 224.947 98.2898C224.947 44 174.775 0 112.87 0ZM168.908 115.874C168.908 132.806 149.601 132.806 149.601 132.806H76.1381C56.8311 132.806 56.8311 115.874 56.8311 115.874V80.7435C56.8311 63.8115 76.1381 63.8116 76.1381 63.8116H149.601C168.908 63.8116 168.908 80.7435 168.908 80.7435V115.874Z" fill="#C60000"/>
</svg>
